<svg xmlns="http://www.w3.org/2000/svg"><defs><linearGradient id="a" x1="43.406" x2="593.285" y1="521.75" y2="380.43" gradientUnits="userSpaceOnUse"><stop offset="0" stop-color="#D74596"></stop><stop offset=".366" stop-color="#F2464E"></stop><stop offset=".686" stop-color="#857ADD"></stop><stop offset="1" stop-color="#0192DE"></stop></linearGradient><linearGradient id="a" x1="26.496" x2="26.496" y1="9.333" y2="46.667" gradientUnits="userSpaceOnUse"><stop offset="0" stop-color="#ED0189"></stop><stop offset="1" stop-color="#F3293B"></stop></linearGradient><linearGradient id="a" x1="25.921" x2="25.921" y1="5.552" y2="50.448" gradientUnits="userSpaceOnUse"><stop offset="0" stop-color="#ED0189"></stop><stop offset="1" stop-color="#F3293B"></stop></linearGradient><linearGradient id="b" x1="25.921" x2="25.921" y1="5.552" y2="50.448" gradientUnits="userSpaceOnUse"><stop offset="0" stop-color="#ED0189"></stop><stop offset="1" stop-color="#F3293B"></stop></linearGradient><linearGradient id="a" x1="25.788" x2="25.788" y1="10.391" y2="45.609" gradientUnits="userSpaceOnUse"><stop offset="0" stop-color="#ED0189"></stop><stop offset="1" stop-color="#F3293B"></stop></linearGradient><linearGradient id="b" x1="25.788" x2="25.788" y1="10.391" y2="45.609" gradientUnits="userSpaceOnUse"><stop offset="0" stop-color="#ED0189"></stop><stop offset="1" stop-color="#F3293B"></stop></linearGradient><linearGradient id="a" x1="25.689" x2="25.689" y1="5.741" y2="50.214" gradientUnits="userSpaceOnUse"><stop offset="0" stop-color="#ED0189"></stop><stop offset="1" stop-color="#F3293B"></stop></linearGradient><linearGradient id="b" x1="25.689" x2="25.689" y1="5.741" y2="50.214" gradientUnits="userSpaceOnUse"><stop offset="0" stop-color="#ED0189"></stop><stop offset="1" stop-color="#F3293B"></stop></linearGradient></defs><symbol id="arrow"><path fill="#131415" d="m8.548 19.04 6.54-6.54-6.54-6.54a1 1 0 0 1 1.414-1.414l7.248 7.247a1 1 0 0 1 0 1.414l-7.248 7.248a1 1 0 0 1-1.414-1.414"></path></symbol><symbol id="close"><path fill="#131415" d="M17.659 5.429a1 1 0 1 1 1.414 1.414L13.416 12.5l5.657 5.657a1 1 0 0 1-1.415 1.414l-5.656-5.657-5.657 5.657-.019.018a1 1 0 0 1-1.395-1.432l5.656-5.657-5.656-5.657A1 1 0 1 1 6.345 5.43l5.657 5.657z"></path></symbol><symbol id="envelope-alpha"><path fill="url(#a)" fill-rule="evenodd" d="M67.639 201.523c-6.759 62.794-6.457 135.218 2.947 197.757 5.204 34.605 33.446 61.133 68.309 64.165l36.434 3.165a1318 1318 0 0 0 228.342 0l36.434-3.165c34.863-3.032 63.106-29.56 68.31-64.165 9.404-62.539 9.705-134.958 2.945-197.754a741 741 0 0 0-2.945-21.808c-5.204-34.605-33.447-61.134-68.31-64.164l-36.434-3.167a1318.4 1318.4 0 0 0-228.342 0l-36.434 3.167c-34.863 3.03-63.105 29.559-68.309 64.164a739 739 0 0 0-2.947 21.805m110.824-53.085a1282.3 1282.3 0 0 1 222.074 0l36.434 3.167c18.198 1.582 32.94 15.431 35.657 33.494q.423 2.814.825 5.63l-134.159 74.534a102.53 102.53 0 0 1-99.588 0L105.548 190.73q.4-2.816.823-5.631c2.717-18.063 17.459-31.912 35.657-33.494zm299.417 81.228a702 702 0 0 1-5.252 164.232c-2.717 18.064-17.459 31.912-35.657 33.495l-36.434 3.167a1282.3 1282.3 0 0 1-222.074 0l-36.435-3.167c-18.198-1.583-32.94-15.431-35.657-33.495a702 702 0 0 1-5.251-164.231l121.011 67.229c41.898 23.276 92.84 23.276 134.735 0z" clip-rule="evenodd" opacity=".05"></path></symbol><symbol id="envelope"><path fill="#268CDE" fill-rule="evenodd" d="M3.738 11.138c-.373 3.47-.357 7.473.163 10.93a4.184 4.184 0 0 0 3.775 3.546l2.014.174a73 73 0 0 0 12.62 0l2.014-.174a4.184 4.184 0 0 0 3.775-3.547c.52-3.456.536-7.459.163-10.93a41 41 0 0 0-.163-1.204 4.184 4.184 0 0 0-3.775-3.547l-2.014-.175a73 73 0 0 0-12.62 0l-2.014.175a4.184 4.184 0 0 0-3.775 3.547q-.09.6-.163 1.205m6.125-2.934a71 71 0 0 1 12.274 0l2.013.175a2.184 2.184 0 0 1 1.971 1.851l.046.311-7.415 4.12a5.67 5.67 0 0 1-5.504 0l-7.415-4.12.046-.311a2.184 2.184 0 0 1 1.97-1.851zm16.548 4.49c.259 3.023.162 6.07-.29 9.076a2.184 2.184 0 0 1-1.97 1.851l-2.014.175c-4.084.355-8.19.355-12.274 0l-2.013-.175a2.184 2.184 0 0 1-1.971-1.851 38.8 38.8 0 0 1-.29-9.077l6.688 3.716a7.67 7.67 0 0 0 7.446 0z" clip-rule="evenodd"></path></symbol><symbol id="flag"><path fill="transparent" stroke="url(#a)" stroke-linecap="round" stroke-linejoin="round" stroke-width="3" d="M13.066 33.6s1.867-1.867 7.467-1.867 9.333 3.734 14.933 3.734 7.467-1.867 7.467-1.867V11.2s-1.867 1.867-7.467 1.867-9.333-3.734-14.933-3.734-7.467 1.867-7.467 1.867zm0 0v13.067"></path></symbol><symbol id="nut"><path fill="url(#a)" fill-rule="evenodd" d="M26.13 6.037a3.85 3.85 0 0 1 3.74 0l16.8 9.333a3.85 3.85 0 0 1 1.98 3.366v18.528a3.85 3.85 0 0 1-1.98 3.366l-16.8 9.333a3.85 3.85 0 0 1-3.74 0L9.33 40.63a3.85 3.85 0 0 1-1.98-3.366V18.736a3.85 3.85 0 0 1 1.98-3.366zm2.04 3.06a.35.35 0 0 0-.34 0l-16.8 9.333a.35.35 0 0 0-.18.306v18.528a.35.35 0 0 0 .18.306l16.8 9.334a.35.35 0 0 0 .34 0l16.8-9.334a.35.35 0 0 0 .18-.306V18.736a.35.35 0 0 0-.18-.306z" clip-rule="evenodd"></path><path fill="url(#b)" fill-rule="evenodd" d="M16.917 28c0-6.121 4.962-11.083 11.083-11.083S39.083 21.879 39.083 28 34.121 39.083 28 39.083 16.917 34.121 16.917 28M28 20.417a7.583 7.583 0 1 0 0 15.166 7.583 7.583 0 0 0 0-15.166" clip-rule="evenodd"></path></symbol><symbol id="phone"><path fill="#268CDE" fill-rule="evenodd" d="M7.787 13.142a22.96 22.96 0 0 0 11.895 11.55l.017.007 1.018.454a3 3 0 0 0 3.653-.983l1.7-2.352a.333.333 0 0 0-.062-.455l-2.966-2.393a.334.334 0 0 0-.477.061L21.41 20.59a1 1 0 0 1-1.215.316A17.85 17.85 0 0 1 11.3 12.01a1 1 0 0 1 .316-1.215l1.558-1.155a.333.333 0 0 0 .06-.477l-2.393-2.967a.333.333 0 0 0-.454-.06L8.024 7.842a3 3 0 0 0-.976 3.674l.738 1.623zM18.893 26.53A24.96 24.96 0 0 1 5.97 13.975l-.002-.004-.74-1.626a5 5 0 0 1 1.626-6.123l2.364-1.707a2.333 2.333 0 0 1 3.182.426l2.393 2.967a2.333 2.333 0 0 1-.426 3.34l-.893.662a15.86 15.86 0 0 0 6.824 6.823l.661-.893a2.333 2.333 0 0 1 3.34-.426l2.966 2.393a2.334 2.334 0 0 1 .426 3.182l-1.699 2.352a5 5 0 0 1-6.087 1.639z" clip-rule="evenodd"></path></symbol><symbol id="picture"><path fill="url(#a)" d="M32.667 21a3.5 3.5 0 1 1 7 0 3.5 3.5 0 0 1-7 0"></path><path fill="url(#b)" fill-rule="evenodd" d="M16.958 10.87a127.5 127.5 0 0 1 22.085 0l3.523.306a7.32 7.32 0 0 1 6.607 6.206 71.4 71.4 0 0 1 0 21.236 7.32 7.32 0 0 1-6.607 6.206l-3.524.306c-7.347.639-14.737.639-22.084 0l-3.524-.306a7.32 7.32 0 0 1-6.607-6.206 71.4 71.4 0 0 1 0-21.236 7.32 7.32 0 0 1 6.607-6.206zm21.781 3.487a124 124 0 0 0-21.478 0l-3.524.306a3.82 3.82 0 0 0-3.449 3.24 68 68 0 0 0-.726 12.06l9.034-9.034a1.75 1.75 0 0 1 2.545.075l8.567 9.638 5.905-1.969a1.75 1.75 0 0 1 1.855.49l8.21 9.123a4 4 0 0 0 .034-.189 67.9 67.9 0 0 0 0-20.194 3.82 3.82 0 0 0-3.449-3.24zm4.708 26.682-7.814-8.683-5.913 1.97a1.75 1.75 0 0 1-1.861-.497l-8.1-9.112-9.903 9.901a68 68 0 0 0 .432 3.48 3.82 3.82 0 0 0 3.449 3.239l3.524.306c7.146.621 14.332.621 21.478 0l3.524-.306c.417-.036.816-.14 1.184-.298" clip-rule="evenodd"></path></symbol><symbol id="pin"><path fill="#268CDE" fill-rule="evenodd" d="M9.667 13.333a6.333 6.333 0 1 1 12.666 0 6.333 6.333 0 0 1-12.666 0M16 9a4.333 4.333 0 1 0 0 8.667A4.333 4.333 0 0 0 16 9" clip-rule="evenodd"></path><path fill="#268CDE" fill-rule="evenodd" d="M4.7 11.81A11.05 11.05 0 0 1 15.711 1.666h.576a11.05 11.05 0 0 1 11.013 10.142 11.92 11.92 0 0 1-2.653 8.528l-6.39 7.816a2.916 2.916 0 0 1-4.515 0l-6.391-7.816a11.92 11.92 0 0 1-2.653-8.528m11.012-8.143a9.05 9.05 0 0 0-9.02 8.307A9.92 9.92 0 0 0 8.9 19.07l6.39 7.816a.916.916 0 0 0 1.42 0l6.39-7.816a9.92 9.92 0 0 0 2.208-7.098 9.05 9.05 0 0 0-9.02-8.306z" clip-rule="evenodd"></path></symbol><symbol id="printer"><path fill="url(#a)" d="M41.417 25.667a2.916 2.916 0 1 0 0 5.833 2.916 2.916 0 0 0 0-5.833"></path><path fill="url(#b)" fill-rule="evenodd" d="m9.737 18.936 4.846-.539V9.13a2.905 2.905 0 0 1 2.638-2.892c7.171-.662 14.387-.662 21.558 0a2.905 2.905 0 0 1 2.638 2.892v9.267l4.846.539a4.3 4.3 0 0 1 3.697 3.236 33.6 33.6 0 0 1 0 16.194l-.428 1.722a1.75 1.75 0 0 1-1.699 1.329h-6.416v5.443c0 1.452-1.1 2.667-2.544 2.812-7.23.723-14.515.723-21.746 0a2.825 2.825 0 0 1-2.544-2.812v-5.443H8.167a1.75 1.75 0 0 1-1.699-1.329l-.427-1.722a33.6 33.6 0 0 1 0-16.194 4.3 4.3 0 0 1 3.696-3.236m28.18-.877c-6.6-.541-13.234-.541-19.834 0V9.674a114 114 0 0 1 19.834 0zm0 20.445a.86.86 0 0 0-.576-.804 106 106 0 0 0-18.682 0 .86.86 0 0 0-.576.814v7.734c6.597.621 13.237.621 19.834 0zm8.548-.587h-5.048v-.777c0-1.452-1.1-2.667-2.544-2.812q-.475-.047-.949-.09a4 4 0 0 0-.404-.063 89 89 0 0 0-19.04 0 4 4 0 0 0-.404.063q-.474.044-.949.09a2.825 2.825 0 0 0-2.544 2.812v.777H9.535l-.098-.394a30.1 30.1 0 0 1 0-14.508.8.8 0 0 1 .687-.6l4.859-.54a118 118 0 0 1 26.034 0l4.86.54a.8.8 0 0 1 .686.6 30.1 30.1 0 0 1 0 14.508z" clip-rule="evenodd"></path></symbol><symbol id="sitemap"></symbol></svg>