<svg width="24" height="25" viewBox="0 0 24 25" fill="none" xmlns="http://www.w3.org/2000/svg">
<path d="M17.6585 5.42888C18.049 5.03836 18.6822 5.03835 19.0727 5.42888C19.4632 5.8194 19.4632 6.45257 19.0727 6.84309L13.4158 12.5L19.0727 18.1568C19.4632 18.5473 19.4632 19.1805 19.0727 19.571C18.6822 19.9615 18.049 19.9615 17.6585 19.571L12.0016 13.9142L6.34481 19.571C6.3387 19.5771 6.33254 19.5831 6.32632 19.589C5.93455 19.9614 5.31501 19.9554 4.93059 19.571C4.6377 19.2781 4.56447 18.8487 4.71092 18.4876C4.75973 18.3672 4.83296 18.2544 4.93059 18.1568L10.5874 12.5L4.93059 6.84314C4.54006 6.45262 4.54006 5.81945 4.93059 5.42893C5.32111 5.0384 5.95428 5.0384 6.3448 5.42893L12.0016 11.0857L17.6585 5.42888Z" fill="#131415"/>
</svg>
