<svg viewBox="0 0 24 25" fill="none" xmlns="http://www.w3.org/2000/svg">
<path d="M8.54778 19.0408L15.0885 12.5L8.54778 5.9593C8.49896 5.91049 8.45625 5.85788 8.41964 5.80243C8.18883 5.45287 8.20053 4.99031 8.45472 4.6522C8.48279 4.61487 8.5138 4.57906 8.54778 4.54509C8.65218 4.44069 8.77392 4.3642 8.90373 4.31562C9.0774 4.25062 9.26552 4.23558 9.44588 4.2705C9.63497 4.30711 9.81554 4.39864 9.96199 4.54509L17.2098 11.7929C17.3974 11.9805 17.5027 12.2348 17.5027 12.5C17.5027 12.7653 17.3974 13.0196 17.2098 13.2072L9.96199 20.455C9.57146 20.8455 8.9383 20.8455 8.54778 20.455C8.49896 20.4062 8.45625 20.3536 8.41964 20.2981C8.16335 19.91 8.20607 19.3825 8.54778 19.0408Z" fill="#131415"/>
</svg>
