<svg width="579" height="579" viewBox="0 0 579 579" fill="none" xmlns="http://www.w3.org/2000/svg">
<g opacity="0.05">
<path fill-rule="evenodd" clip-rule="evenodd" d="M67.6388 201.523C60.8804 264.317 61.1817 336.741 70.5862 399.28C75.7899 433.885 104.032 460.413 138.895 463.445L175.329 466.61C251.3 473.216 327.699 473.216 403.671 466.61L440.105 463.445C474.968 460.413 503.211 433.885 508.415 399.28C517.819 336.741 518.12 264.322 511.36 201.526C510.487 194.246 509.505 186.976 508.415 179.718C503.211 145.113 474.968 118.584 440.105 115.554L403.671 112.387C327.699 105.783 251.3 105.783 175.329 112.387L138.895 115.554C104.032 118.584 75.7899 145.113 70.5862 179.718C69.495 186.975 68.5126 194.244 67.6388 201.523ZM178.463 148.438C252.347 142.016 326.652 142.016 400.537 148.438L436.971 151.605C455.169 153.187 469.911 167.036 472.628 185.099C472.91 186.975 473.185 188.852 473.453 190.729L339.294 265.263C308.327 282.467 270.673 282.467 239.706 265.263L105.548 190.73C105.815 188.853 106.089 186.975 106.371 185.099C109.088 167.036 123.83 153.187 142.028 151.605L178.463 148.438ZM477.88 229.666C482.56 284.375 480.809 339.498 472.628 393.898C469.911 411.962 455.169 425.81 436.971 427.393L400.537 430.56C326.652 436.982 252.347 436.982 178.463 430.56L142.028 427.393C123.83 425.81 109.088 411.962 106.371 393.898C98.1907 339.498 96.4402 284.377 101.12 229.667L222.131 296.896C264.029 320.172 314.971 320.172 356.866 296.896L477.88 229.666Z" fill="url(#paint0_linear_1_1602)"/>
</g>
<defs>
<linearGradient id="paint0_linear_1_1602" x1="43.4063" y1="521.75" x2="593.285" y2="380.43" gradientUnits="userSpaceOnUse">
<stop offset="0.0001" stop-color="#D74596"/>
<stop offset="0.365877" stop-color="#F2464E"/>
<stop offset="0.685771" stop-color="#857ADD"/>
<stop offset="1" stop-color="#0192DE"/>
</linearGradient>
</defs>
</svg>
