<svg xmlns="http://www.w3.org/2000/svg" fill="none" viewBox="0 0 56 56">
  <path fill="currentColor" fill-rule="" d="M26.13 6.037a3.85 3.85 0 0 1 3.74 0l16.8 9.333a3.85 3.85 0 0 1 1.98 3.366v18.528a3.85 3.85 0 0 1-1.98 3.366l-16.8 9.333a3.85 3.85 0 0 1-3.74 0L9.33 40.63a3.85 3.85 0 0 1-1.98-3.366V18.736a3.85 3.85 0 0 1 1.98-3.366l16.8-9.333Zm2.04 3.06a.35.35 0 0 0-.34 0l-16.8 9.333a.35.35 0 0 0-.18.306v18.528a.35.35 0 0 0 .18.306l16.8 9.334a.35.35 0 0 0 .34 0l16.8-9.334a.35.35 0 0 0 .18-.306V18.736a.35.35 0 0 0-.18-.306l-16.8-9.334Z" />
  <path fill="currentColor" fill-rule="" d="M16.917 28c0-6.121 4.962-11.083 11.083-11.083S39.083 21.879 39.083 28 34.121 39.083 28 39.083 16.917 34.121 16.917 28ZM28 20.417a7.583 7.583 0 1 0 0 15.166 7.583 7.583 0 0 0 0-15.166Z"/>
</svg>