<svg xmlns="http://www.w3.org/2000/svg" fill="none" viewBox="0 0 56 56">
  <path fill="currentColor" d="M32.667 21a3.5 3.5 0 1 1 7 0 3.5 3.5 0 0 1-7 0Z"/>
  <path fill="currentColor" d="M16.958 10.87a127.514 127.514 0 0 1 22.084 0l3.524.306a7.322 7.322 0 0 1 6.607 6.206 71.409 71.409 0 0 1 0 21.236 7.323 7.323 0 0 1-6.607 6.206l-3.524.306c-7.347.639-14.737.639-22.084 0l-3.524-.306a7.322 7.322 0 0 1-6.607-6.206 71.403 71.403 0 0 1 0-21.236 7.322 7.322 0 0 1 6.607-6.206l3.524-.306Zm21.781 3.487a124.008 124.008 0 0 0-21.478 0l-3.524.306a3.822 3.822 0 0 0-3.449 3.24 67.904 67.904 0 0 0-.726 12.06l9.034-9.034a1.75 1.75 0 0 1 2.545.075l8.567 9.638 5.905-1.969a1.75 1.75 0 0 1 1.855.49l8.21 9.123a3.84 3.84 0 0 0 .034-.189 67.903 67.903 0 0 0 0-20.194 3.822 3.822 0 0 0-3.449-3.24l-3.524-.306Zm4.708 26.682-7.814-8.683-5.913 1.97a1.75 1.75 0 0 1-1.861-.497l-8.1-9.113-9.903 9.902a67.94 67.94 0 0 0 .432 3.48 3.822 3.822 0 0 0 3.449 3.239l3.524.306c7.146.621 14.332.621 21.478 0l3.524-.306c.417-.036.816-.14 1.184-.298Z"/>
</svg>