<svg xmlns="http://www.w3.org/2000/svg" fill="none" viewBox="0 0 56 56">
  <path fill="currentColor" d="M41.417 25.667a2.916 2.916 0 1 0 0 5.833 2.916 2.916 0 0 0 0-5.833Z"/>
  <path fill="currentColor" fill-rule="evenodd" d="m9.737 18.936 4.846-.539V9.13a2.905 2.905 0 0 1 2.638-2.892c7.171-.662 14.387-.662 21.558 0a2.905 2.905 0 0 1 2.638 2.892v9.267l4.846.539a4.298 4.298 0 0 1 3.697 3.236 33.601 33.601 0 0 1 0 16.194l-.428 1.722a1.75 1.75 0 0 1-1.699 1.329h-6.416v5.443c0 1.452-1.1 2.667-2.544 2.812-7.23.723-14.515.723-21.746 0a2.825 2.825 0 0 1-2.544-2.812v-5.443H8.167a1.75 1.75 0 0 1-1.699-1.329l-.427-1.722a33.601 33.601 0 0 1 0-16.194 4.298 4.298 0 0 1 3.696-3.236Zm28.18-.877c-6.6-.541-13.234-.541-19.834 0V9.674a113.765 113.765 0 0 1 19.834 0v8.385Zm0 20.445a.864.864 0 0 0-.576-.804 105.767 105.767 0 0 0-18.682 0 .864.864 0 0 0-.576.814v7.734c6.597.621 13.237.621 19.834 0v-7.744Zm8.548-.587h-5.048v-.777c0-1.452-1.1-2.667-2.544-2.812-.316-.031-.633-.061-.949-.09a4.417 4.417 0 0 0-.404-.063 88.878 88.878 0 0 0-19.04 0 4.418 4.418 0 0 0-.404.063c-.316.029-.633.059-.949.09a2.825 2.825 0 0 0-2.544 2.812v.777H9.535l-.098-.394a30.102 30.102 0 0 1 0-14.508.798.798 0 0 1 .687-.6l4.859-.54a117.84 117.84 0 0 1 26.034 0l4.86.54a.798.798 0 0 1 .686.6 30.1 30.1 0 0 1 0 14.508l-.098.394Z" clip-rule="evenodd"/>
</svg>